# xmcd
#
# Track frame offsets:
#	150
#	23271
#	38298
#	69199
#	92695
#	110686
#	131083
#	169847
#	180666
#	211084
#	231149
#	251695
#
# Disc length: 3641 seconds
#
# Revision: 1
# Processed by: cddbd v1.5.2PL0 Copyright (c) Steve Scherf et al.
# Submitted via: audiograbber 1.83.01
#
DISCID=8f0e370c
DTITLE=White,Snowy - The situation
DYEAR=2019
DGENRE=Blues
TTITLE0=The situation
TTITLE1=This feeling
TTITLE2=LA Skip
TTITLE3=Can't seem to do much about it
TTITLE4=Crazy Situation Blues
TTITLE5=Blues in my reflection
TTITLE6=Why do I still have the blues
TTITLE7=You can't take it with you
TTITLE8=Migration
TTITLE9=The lying game
TTITLE10=Hard Blues
TTITLE11=I can't imagine
EXTD=
EXTT0=
EXTT1=
EXTT2=
EXTT3=
EXTT4=
EXTT5=
EXTT6=
EXTT7=
EXTT8=
EXTT9=
EXTT10=
EXTT11=
PLAYORDER=
